<?xml version="1.0" encoding="iso-8859-1"?>
<!-- Generator: Adobe Illustrator 19.0.0, SVG Export Plug-In . SVG Version: 6.00 Build 0)  -->

<svg id="weatherBox" xmlns="http://www.w3.org/2000/svg" xmlns:xlink="http://www.w3.org/1999/xlink" x="0px" y="0px" viewBox="0 0 55 55">
	<defs>
		<style type="text/css">
		<![CDATA[
			
			/* SVG GLOBAL */
			svg {
			  display: inline-block;
			  width: 64px;
			  height: 64px;
			  shape-rendering: geometricPrecision;
			  fill: #56A0EE
			}

        ]]>
		</style>
	</defs>
	<g id="tstorm" class="icon" transform="translate(5,0)">
		<path id="smallcloud" d="M 13,25 C 6,25 6,35 13,35 L 25,35 C 35,35 35,23 27,23 C 25,17 14,17 13,25 z" transform="translate(0,-6)"/>
		<path id="rain1" d="M 20 20 L 18 23 C 18 26, 22 26, 22 23 L 20 20 z" transform="translate(0,14)">
			<animate attributeName="fill"
					  attributeType="auto"
					  from="#fff"
					  to="#56A0EE"
					  dur="1.5s"
					  repeatCount="indefinite"
												begin="0s"/>
		</path>
		
		<path id="bolt" d="M 20 20 L 17 24, 19 24, 16 29, 23 23, 20 23, 23 20, 20 20 z" transform="translate(-4,8)" >
			<animate attributeName="fill"
					  attributeType="auto"
					  from="#fff"
					  to="#FF8C00"
					  dur="1.7s"
					  repeatCount="indefinite"
												begin="0.2s"/>
		</path>
		<path id="rain3" d="M 20 20 L 18 23 C 18 26, 22 26, 22 23 L 20 20 z" transform="translate(6,10)">
			<animate attributeName="fill"
					  attributeType="auto"
					  from="#fff"
					  to="#56A0EE"
					  dur="1.5s"
					  repeatCount="indefinite"
												begin="0.5s"/>
		</path>
	</g>
</svg>